<svg xmlns="http://www.w3.org/2000/svg" viewBox="0 0 120 120" role="img" aria-label="Kendre Lab">
  <g fill="none" stroke-linecap="round">
    <path d="M113.18 69.38 L101.36 67.29 M96.37 81.00 L106.77 87.00 M94.71 101.37 L87.00 92.17 M74.36 99.47 L78.47 110.74 M60.00 114.00 L60.00 102.00 M45.64 99.47 L41.53 110.74 M25.29 101.37 L33.00 92.17 M23.63 81.00 L13.23 87.00 M6.82 69.38 L18.64 67.29 M18.64 52.71 L6.82 50.62 M13.23 33.00 L23.63 39.00 M33.00 27.83 L25.29 18.63 M41.53 9.26 L45.64 20.53 M60.00 18.00 L60.00 6.00 M78.47 9.26 L74.36 20.53 M87.00 27.83 L94.71 18.63 M106.77 33.00 L96.37 39.00 M101.36 52.71 L113.18 50.62" stroke="#0d3b5c" stroke-opacity=".40" stroke-width="1.6"/>
    <path d="M108.00 60.00 L109.38 61.29 L110.65 62.65 L111.74 64.07 L112.56 65.52 L113.09 66.99 L113.26 68.44 L113.08 69.84 L112.53 71.17 L111.65 72.40 L110.46 73.52 L109.03 74.52 L107.41 75.41 L105.69 76.18 L103.94 76.87 L102.22 77.49 L100.63 78.09 L99.21 78.70 L98.00 79.36 L97.06 80.12 L96.37 81.00 L95.95 82.03 L95.77 83.23 L95.80 84.60 L95.98 86.14 L96.26 87.82 L96.57 89.62 L96.86 91.48 L97.05 93.36 L97.09 95.20 L96.94 96.94 L96.56 98.53 L95.94 99.91 L95.06 101.05 L93.94 101.91 L92.60 102.48 L91.07 102.76 L89.39 102.77 L87.63 102.54 L85.81 102.12 L84.00 101.57 L82.24 100.95 L80.55 100.34 L78.99 99.81 L77.55 99.42 L76.25 99.22 L75.08 99.28 L74.03 99.61 L73.07 100.22 L72.18 101.12 L71.33 102.27 L70.47 103.63 L69.59 105.14 L68.66 106.73 L67.66 108.34 L66.56 109.87 L65.39 111.24 L64.12 112.40 L62.79 113.27 L61.41 113.82 L60.00 114.00 L58.59 113.82 L57.21 113.27 L55.88 112.40 L54.61 111.24 L53.44 109.87 L52.34 108.34 L51.34 106.73 L50.41 105.14 L49.53 103.63 L48.67 102.27 L47.82 101.12 L46.93 100.22 L45.97 99.61 L44.92 99.28 L43.75 99.22 L42.45 99.42 L41.01 99.81 L39.45 100.34 L37.76 100.95 L36.00 101.57 L34.19 102.12 L32.37 102.54 L30.61 102.77 L28.93 102.76 L27.40 102.48 L26.06 101.91 L24.94 101.05 L24.06 99.91 L23.44 98.53 L23.06 96.94 L22.91 95.20 L22.95 93.36 L23.14 91.48 L23.43 89.62 L23.74 87.82 L24.02 86.14 L24.20 84.60 L24.23 83.23 L24.05 82.03 L23.63 81.00 L22.94 80.12 L22.00 79.36 L20.79 78.70 L19.37 78.09 L17.78 77.49 L16.06 76.87 L14.31 76.18 L12.59 75.41 L10.97 74.52 L9.54 73.52 L8.35 72.40 L7.47 71.17 L6.92 69.84 L6.74 68.44 L6.91 66.99 L7.44 65.52 L8.26 64.07 L9.35 62.65 L10.62 61.29 L12.00 60.00 L13.42 58.78 L14.79 57.63 L16.03 56.54 L17.09 55.49 L17.91 54.46 L18.44 53.42 L18.69 52.34 L18.63 51.21 L18.30 49.99 L17.73 48.67 L16.98 47.26 L16.11 45.74 L15.20 44.13 L14.31 42.46 L13.53 40.75 L12.93 39.04 L12.56 37.37 L12.47 35.78 L12.69 34.31 L13.23 33.00 L14.10 31.87 L15.26 30.95 L16.68 30.23 L18.31 29.71 L20.10 29.38 L21.97 29.20 L23.86 29.13 L25.71 29.12 L27.46 29.12 L29.06 29.06 L30.48 28.89 L31.70 28.57 L32.71 28.05 L33.52 27.30 L34.15 26.32 L34.64 25.09 L35.02 23.65 L35.34 22.03 L35.65 20.27 L36.00 18.43 L36.43 16.59 L36.97 14.80 L37.66 13.16 L38.50 11.72 L39.51 10.53 L40.67 9.66 L41.98 9.11 L43.40 8.92 L44.91 9.07 L46.48 9.54 L48.06 10.28 L49.63 11.24 L51.17 12.34 L52.64 13.52 L54.03 14.69 L55.35 15.77 L56.59 16.70 L57.77 17.40 L58.90 17.85 L60.00 18.00 L61.10 17.85 L62.23 17.40 L63.41 16.70 L64.65 15.77 L65.97 14.69 L67.36 13.52 L68.83 12.34 L70.37 11.24 L71.94 10.28 L73.52 9.54 L75.09 9.07 L76.60 8.92 L78.02 9.11 L79.33 9.66 L80.49 10.53 L81.50 11.72 L82.34 13.16 L83.03 14.80 L83.57 16.59 L84.00 18.43 L84.35 20.27 L84.66 22.03 L84.98 23.65 L85.36 25.09 L85.85 26.32 L86.48 27.30 L87.29 28.05 L88.30 28.57 L89.52 28.89 L90.94 29.06 L92.54 29.12 L94.29 29.12 L96.14 29.13 L98.03 29.20 L99.90 29.38 L101.69 29.71 L103.32 30.23 L104.74 30.95 L105.90 31.87 L106.77 33.00 L107.31 34.31 L107.53 35.78 L107.44 37.37 L107.07 39.04 L106.47 40.75 L105.69 42.46 L104.80 44.13 L103.89 45.74 L103.02 47.26 L102.27 48.67 L101.70 49.99 L101.37 51.21 L101.31 52.34 L101.56 53.42 L102.09 54.46 L102.91 55.49 L103.97 56.54 L105.21 57.63 L106.58 58.78 L108.00 60.00" stroke="#0d3b5c" stroke-opacity=".92" stroke-width="2.4"/>
    <path d="M108.00 60.00 L106.58 61.22 L105.21 62.37 L103.97 63.46 L102.91 64.51 L102.09 65.54 L101.56 66.58 L101.31 67.66 L101.37 68.79 L101.70 70.01 L102.27 71.33 L103.02 72.74 L103.89 74.26 L104.80 75.87 L105.69 77.54 L106.47 79.25 L107.07 80.96 L107.44 82.63 L107.53 84.22 L107.31 85.69 L106.77 87.00 L105.90 88.13 L104.74 89.05 L103.32 89.77 L101.69 90.29 L99.90 90.62 L98.03 90.80 L96.14 90.87 L94.29 90.88 L92.54 90.88 L90.94 90.94 L89.52 91.11 L88.30 91.43 L87.29 91.95 L86.48 92.70 L85.85 93.68 L85.36 94.91 L84.98 96.35 L84.66 97.97 L84.35 99.73 L84.00 101.57 L83.57 103.41 L83.03 105.20 L82.34 106.84 L81.50 108.28 L80.49 109.47 L79.33 110.34 L78.02 110.89 L76.60 111.08 L75.09 110.93 L73.52 110.46 L71.94 109.72 L70.37 108.76 L68.83 107.66 L67.36 106.48 L65.97 105.31 L64.65 104.23 L63.41 103.30 L62.23 102.60 L61.10 102.15 L60.00 102.00 L58.90 102.15 L57.77 102.60 L56.59 103.30 L55.35 104.23 L54.03 105.31 L52.64 106.48 L51.17 107.66 L49.63 108.76 L48.06 109.72 L46.48 110.46 L44.91 110.93 L43.40 111.08 L41.98 110.89 L40.67 110.34 L39.51 109.47 L38.50 108.28 L37.66 106.84 L36.97 105.20 L36.43 103.41 L36.00 101.57 L35.65 99.73 L35.34 97.97 L35.02 96.35 L34.64 94.91 L34.15 93.68 L33.52 92.70 L32.71 91.95 L31.70 91.43 L30.48 91.11 L29.06 90.94 L27.46 90.88 L25.71 90.88 L23.86 90.87 L21.97 90.80 L20.10 90.62 L18.31 90.29 L16.68 89.77 L15.26 89.05 L14.10 88.13 L13.23 87.00 L12.69 85.69 L12.47 84.22 L12.56 82.63 L12.93 80.96 L13.53 79.25 L14.31 77.54 L15.20 75.87 L16.11 74.26 L16.98 72.74 L17.73 71.33 L18.30 70.01 L18.63 68.79 L18.69 67.66 L18.44 66.58 L17.91 65.54 L17.09 64.51 L16.03 63.46 L14.79 62.37 L13.42 61.22 L12.00 60.00 L10.62 58.71 L9.35 57.35 L8.26 55.93 L7.44 54.48 L6.91 53.01 L6.74 51.56 L6.92 50.16 L7.47 48.83 L8.35 47.60 L9.54 46.48 L10.97 45.48 L12.59 44.59 L14.31 43.82 L16.06 43.13 L17.78 42.51 L19.37 41.91 L20.79 41.30 L22.00 40.64 L22.94 39.88 L23.63 39.00 L24.05 37.97 L24.23 36.77 L24.20 35.40 L24.02 33.86 L23.74 32.18 L23.43 30.38 L23.14 28.52 L22.95 26.64 L22.91 24.80 L23.06 23.06 L23.44 21.47 L24.06 20.09 L24.94 18.95 L26.06 18.09 L27.40 17.52 L28.93 17.24 L30.61 17.23 L32.37 17.46 L34.19 17.88 L36.00 18.43 L37.76 19.05 L39.45 19.66 L41.01 20.19 L42.45 20.58 L43.75 20.78 L44.92 20.72 L45.97 20.39 L46.93 19.78 L47.82 18.88 L48.67 17.73 L49.53 16.37 L50.41 14.86 L51.34 13.27 L52.34 11.66 L53.44 10.13 L54.61 8.76 L55.88 7.60 L57.21 6.73 L58.59 6.18 L60.00 6.00 L61.41 6.18 L62.79 6.73 L64.12 7.60 L65.39 8.76 L66.56 10.13 L67.66 11.66 L68.66 13.27 L69.59 14.86 L70.47 16.37 L71.33 17.73 L72.18 18.88 L73.07 19.78 L74.03 20.39 L75.08 20.72 L76.25 20.78 L77.55 20.58 L78.99 20.19 L80.55 19.66 L82.24 19.05 L84.00 18.43 L85.81 17.88 L87.63 17.46 L89.39 17.23 L91.07 17.24 L92.60 17.52 L93.94 18.09 L95.06 18.95 L95.94 20.09 L96.56 21.47 L96.94 23.06 L97.09 24.80 L97.05 26.64 L96.86 28.52 L96.57 30.38 L96.26 32.18 L95.98 33.86 L95.80 35.40 L95.77 36.77 L95.95 37.97 L96.37 39.00 L97.06 39.88 L98.00 40.64 L99.21 41.30 L100.63 41.91 L102.22 42.51 L103.94 43.13 L105.69 43.82 L107.41 44.59 L109.03 45.48 L110.46 46.48 L111.65 47.60 L112.53 48.83 L113.08 50.16 L113.26 51.56 L113.09 53.01 L112.56 54.48 L111.74 55.93 L110.65 57.35 L109.38 58.71 L108.00 60.00" stroke="#0d3b5c" stroke-opacity=".92" stroke-width="2.4"/>
  </g>
  <g>
    <circle cx="60" cy="60" r="30" fill="none" stroke="#0d3b5c" stroke-opacity=".22" stroke-width="1.6"/>
    <path d="M63.14 30.16 A30 30 0 0 1 88.84 51.73" fill="none" stroke="#1c6fa8" stroke-opacity="1" stroke-width="7"/>
    <path d="M82.38 53.58 L89.95 61.77 L95.30 49.88 Z" fill="#1c6fa8" fill-opacity="1"/>
    <path d="M89.93 62.09 A30 30 0 0 1 69.27 88.53" fill="none" stroke="#1d8a6a" stroke-opacity="1" stroke-width="7"/>
    <path d="M67.19 82.14 L59.27 89.99 L71.35 94.92 Z" fill="#1d8a6a" fill-opacity="1"/>
    <path d="M54.79 89.54 A30 30 0 0 1 30.02 58.95" fill="none" stroke="#d97742" stroke-opacity="1" stroke-width="7"/>
    <path d="M36.73 59.19 L32.07 49.06 L23.30 58.72 Z" fill="#d97742" fill-opacity="1"/>
  </g>
  <g>
    <path d="M75.43 41.61 Q60.00 60.00 78.91 74.78" fill="none" stroke="#1c6fa8" stroke-opacity=".5" stroke-width="1.8" stroke-linecap="round"/>
    <path d="M78.91 74.78 Q60.00 60.00 41.35 75.10" fill="none" stroke="#1d8a6a" stroke-opacity=".5" stroke-width="1.8" stroke-linecap="round"/>
    <path d="M41.35 75.10 Q60.00 60.00 75.43 41.61" fill="none" stroke="#d97742" stroke-opacity=".5" stroke-width="1.8" stroke-linecap="round"/>
  </g>
</svg>
